<svg width="256" height="256" viewBox="0 0 256 256" fill="none" xmlns="http://www.w3.org/2000/svg">
<circle cx="128" cy="128" r="128" fill="black"/>
<path d="M119.092 156.002V168.326H52.1062L98.0684 79.1563H57.7609V66.832H118.512L72.55 156.002H119.092Z" fill="white"/>
<path d="M154.805 199.671C150.166 199.671 145.912 199.188 142.046 198.221C138.276 197.351 135.038 196.336 132.332 195.177C129.722 194.113 127.837 193.195 126.677 192.422L131.027 182.997C132.283 183.674 134.072 184.495 136.391 185.462C138.711 186.525 141.418 187.395 144.511 188.072C147.701 188.845 151.084 189.232 154.66 189.232C159.3 189.232 163.456 188.265 167.129 186.332C170.899 184.495 173.799 181.547 175.829 177.488C177.955 173.525 179.019 168.401 179.019 162.119V96.4375L190.419 94.6976L190.618 161.974C190.618 170.286 189.071 177.246 185.978 182.852C182.885 188.459 178.632 192.663 173.219 195.466C167.806 198.27 161.668 199.671 154.805 199.671ZM154.37 168.353C147.894 168.353 142.191 166.807 137.261 163.713C132.332 160.62 128.465 156.319 125.662 150.809C122.956 145.203 121.602 138.823 121.602 131.67C121.602 124.324 122.956 117.896 125.662 112.387C128.465 106.78 132.332 102.43 137.261 99.3373C142.191 96.2442 147.894 94.6976 154.37 94.6976C190.419 94.6976 173.428 96.4375 179.019 96.4375C183.622 96.4376 178.39 106.78 180.904 112.387C183.513 117.896 184.818 124.324 184.818 131.67C184.818 138.92 183.513 145.3 180.904 150.809C178.39 156.319 174.862 160.62 170.319 163.713C165.776 166.807 160.46 168.353 154.37 168.353ZM157.125 158.349C161.378 158.349 165.148 157.189 168.434 154.869C171.721 152.549 174.282 149.408 176.119 145.445C177.956 141.385 178.874 136.697 178.874 131.38C178.874 126.257 177.907 121.714 175.974 117.751C174.137 113.691 171.576 110.55 168.289 108.327C165.1 106.007 161.33 104.847 156.98 104.847C152.437 104.847 148.377 106.007 144.801 108.327C141.321 110.55 138.566 113.691 136.536 117.751C134.603 121.714 133.637 126.257 133.637 131.38C133.637 136.697 134.651 141.385 136.681 145.445C138.711 149.408 141.466 152.549 144.946 154.869C148.522 157.189 152.582 158.349 157.125 158.349Z" fill="white"/>
<path d="M160.967 95.8301H190.419" stroke="white" stroke-width="2"/>
<circle cx="200.613" cy="163.229" r="6.23009" fill="#EC003B"/>
</svg>
